<svg width="20" height="14" viewBox="0 0 20 14" fill="none" xmlns="http://www.w3.org/2000/svg">
<path d="M3.20625 0.75C2.47438 0.75 1.875 1.32139 1.875 2.0196V10.869H0.9375C0.85462 10.869 0.775134 10.9004 0.716529 10.9562C0.657924 11.012 0.625 11.0877 0.625 11.1667C0.625 12.3155 1.60625 13.25 2.8125 13.25H17.1875C18.3937 13.25 19.375 12.3155 19.375 11.1667C19.375 11.0877 19.3421 11.012 19.2835 10.9562C19.2249 10.9004 19.1454 10.869 19.0625 10.869H18.125V2.0196C18.1242 1.68342 17.9837 1.36121 17.7343 1.12333C17.4849 0.885448 17.1467 0.751257 16.7938 0.75H3.20625ZM3.20625 1.34524H16.7938C17.19 1.34524 17.5 1.64044 17.5 2.0196V10.869H11.5931C11.5869 10.869 11.5825 10.8749 11.5756 10.8749C11.5675 10.8749 11.5588 10.869 11.5506 10.869C11.3931 10.869 11.2469 10.9672 11.25 11.1678C11.25 11.3381 11.1163 11.4654 10.9375 11.4654H9.0625C9.02251 11.4662 8.98274 11.4595 8.94549 11.4456C8.90824 11.4317 8.87424 11.4109 8.84543 11.3845C8.81663 11.3581 8.79359 11.3265 8.77764 11.2916C8.76169 11.2566 8.75315 11.219 8.7525 11.1809C8.75875 11.0261 8.655 10.8672 8.4375 10.8702H2.5V2.02077C2.5 1.6416 2.81 1.3464 3.20625 1.3464V1.34524ZM3.4375 1.94048C3.35462 1.94048 3.27513 1.97178 3.21653 2.0276C3.15792 2.08341 3.125 2.15916 3.125 2.2381V9.97619C3.125 10.0551 3.15792 10.1308 3.21653 10.1866C3.27513 10.2424 3.35462 10.2738 3.4375 10.2738H16.5625C16.6454 10.2738 16.7249 10.2424 16.7835 10.1866C16.8421 10.1308 16.875 10.0551 16.875 9.97619V2.2381C16.875 2.15916 16.8421 2.08341 16.7835 2.0276C16.7249 1.97178 16.6454 1.94048 16.5625 1.94048H3.4375ZM3.75 2.53571H16.25V9.67857H3.75V2.53571ZM1.37812 11.4643H8.18375C8.31375 11.8095 8.65875 12.0595 9.0625 12.0595H10.9375C11.3419 12.0595 11.6862 11.8095 11.8162 11.4643H18.6219C18.4631 12.1268 17.9356 12.6548 17.1875 12.6548H2.8125C2.06437 12.6548 1.5375 12.1274 1.37812 11.4643Z" fill="#FF7789"/>
</svg>
